<?xml version="1.0" encoding="utf-8"?>
<!-- Generator: Adobe Illustrator 28.2.0, SVG Export Plug-In . SVG Version: 6.00 Build 0)  -->
<svg version="1.1" id="Layer_1" xmlns="http://www.w3.org/2000/svg" xmlns:xlink="http://www.w3.org/1999/xlink" x="0px" y="0px"
	 viewBox="0 0 720 191" style="enable-background:new 0 0 720 191;" xml:space="preserve">
<style type="text/css">
	.st0{fill:#312D2A;}
	.st1{fill:#302D2A;}
	.st2{fill:#6F6E6C;}
	.st3{fill:#332F2C;}
	.st4{fill:#FCFCFC;}
</style>
<g>
	<path class="st0" d="M720,68.9c-5.4,4.1-9.4,9-10.5,15.4c-2.5,15.3-4.8,30.6-6.7,45.9c-1.4,11.1-1.9,22.3-6.2,32.9
		c-4.3,10.4-10.8,19-21.2,23.4c-14.5,6.2-29,2.5-37.8-13c-1.9-3.4-3.3-7.2-5.2-11.5c-1.9,2.1-3.6,4.1-5.5,6.1
		c-6.9,7.5-14,14.7-24.1,17.9c-7.1,2.2-14.5-0.5-18.5-6.8c-5.2-8.3-5.9-17.1-3.6-26.4c0.5-2.1,1.1-4.1,2-7.6
		c-2.9,0.9-5.1,1.1-6.5,2.2c-5.1,4.1-10.9,6.1-17.3,6.9c-1.4,0.2-2.8,1.5-3.8,2.6c-6.7,6.9-12.7,14.7-20.1,20.6
		c-5.5,4.4-12.6,7.5-19.5,9.2c-9,2.2-21.1-4.4-26-16.7c-1.8-4.6-2.5-9.7-3.8-15c-3.4,4.3-6.3,9.1-10.2,13
		c-5.8,5.8-11.8,11.7-18.6,16.4c-9.4,6.4-16.2,0.9-20.7-6.2c-4.9-7.8-4.9-16.2-2.5-24.9c5.5-19.7,15.4-37.2,25.8-54.5
		c2.5-4.2,4.8-8.4,6.7-12.9c-4,3.6-8.3,6.9-11.8,10.9c-23.4,26.8-45.1,54.9-62.7,85.9c-2.8,4.9-4.7,5.7-9.7,3.2
		c-6.6-3.2-13.1-10.4-8.4-21c8.8-19.9,17.3-39.9,26.2-59.6c12.5-27.6,25.2-55,37.8-82.5c2.2-4.8,4.7-9.5,7.3-14.2
		c2.7-5,6.3-6.3,10.9-3.7c3.2,1.8,6.3,4.2,8.8,6.9c4.8,5.3,4.8,8.5,1.5,14.8c-12.3,23.5-24.7,47-36.9,70.7
		c-4,7.7-7.4,15.8-10.4,24.5c1.2-1,2.5-1.9,3.6-3.1c12.7-14.7,25.2-29.6,38-44.2c2.9-3.3,6.9-5.7,10.3-8.6c9.3-7.9,16.3-1.6,21.1,5
		c6.4,8.9,2.4,16.5-2.1,24.4c-6.9,12.1-13.6,24.3-19.9,36.7c-4,8-7.2,16.3-10.5,24.6c-0.9,2.3-1.1,5-1.6,7.5c0.5,0.4,1,0.8,1.5,1.1
		c2.2-1.5,4.7-2.5,6.4-4.4c13.4-14.9,24.5-31.4,33.3-49.4c7.2-14.6,15.6-28.4,28.2-38.8c5.8-4.8,13-9,20.2-10.9
		c10.1-2.6,17.6,3.5,23.8,11.8c8.5,11.4,9.5,23.5,6.4,36.3c-1.9,7.8-5.4,15.2-8.2,22.8c-0.2,0.6-0.4,1.2-0.5,1.8
		c0.3,0.4,0.7,0.8,1,1.2c3.4-2.7,7.5-5,10.1-8.3c5-6.2,9.4-12.9,13.5-19.7c5.3-8.8,10.1-17.9,15.1-26.8c-2.7-2.3-5.4-3.8-7-6.1
		c-1.3-1.9-2.5-5.3-1.6-7c0.8-1.7,4.2-2.4,6.6-2.8c2.7-0.5,5.7,0.3,8.3-0.3c1.9-0.4,4.3-1.8,5.3-3.4c6.2-10.6,12-21.5,17.9-32.3
		c4.8-8.8,9.2-9.8,16.8-3.3c2.1,1.8,4.1,3.9,5.7,6.2c2.4,3.3,2.2,6.4-0.4,10c-5,7.1-9.5,14.6-14.2,21.9c0.3,0.5,0.6,1,0.9,1.5
		c3.2,0,6.5-0.2,9.7,0.1c2.1,0.2,4.3,0.7,6.2,1.5c2.6,1.1,2.5,2.9,0.9,5.1c-5.1,7.5-12.9,9-20.9,8.9c-5.2,0-7.7,1.6-9.8,6.2
		c-8.9,20.2-18.3,40.1-27.1,60.3c-1.6,3.7-1.9,8-2.3,12.1c-0.5,5.2,2.5,7.1,7.1,4.3c4-2.5,7.8-5.7,11-9.2
		c5.2-5.7,10.4-11.4,11.7-19.8c0.6-4.5,3.6-8.1,8.6-9.4c1.2-0.3,2.2-1.8,3-3c10.9-17.1,21.5-34.4,32.8-51.2
		c3.9-5.8,9.1-11.2,14.7-15.4c8.4-6.3,20.3-2.8,25.5,6.5c0.3,0.5,0.8,0.8,1.6,1.2C720,65.1,720,66.8,720,68.9 M552.9,114.9
		c2.6-3.4,5.6-6.6,7.7-10.3c1.6-2.9,2.4-6.3,3-9.7c0.4-2.5-0.3-5.2-0.1-7.8c0.3-4.4-1.3-6.1-5.7-5.5c-6.3,0.8-10.4,5-14.3,9.3
		c-12,13.2-20.2,28.7-26.3,45.3c-2.7,7.3-3.5,15.3-4.7,23c-0.5,2.9,0.8,5.8,4.6,5.5c3.1-0.3,7.1-0.4,8.9-2.3
		c6.2-6.3,11.7-13.3,17.3-20.2c1-1.2,1.5-3,1.6-4.6C545.4,129.5,548.7,122.4,552.9,114.9 M684.4,89.7c0.3-2.2,0.6-4.3,0.9-6.5
		c-2.9,1.6-5.1,3.6-6.5,6c-11,17.8-21.8,35.8-32.6,53.7c-0.4,0.7-1.1,1.6-0.9,2.2c1.7,6.8,2.9,13.7,5.5,20.2
		c2.2,5.5,10.6,8,15.5,1.3c1.7-2.3,3.4-4.6,4.3-7.2C678.5,137,680.2,113.5,684.4,89.7z"/>
	<path class="st1" d="M0,54.8C9.5,32.4,26.4,17.9,47.4,7.3c10.5-5.3,21.4-7,32.7-5.7c11.8,1.4,18.2,9.8,22.8,20
		c6,13.5,4.2,26.9-1.9,39.4c-12.1,24.9-25.3,49.2-37.8,73.9c-3,5.9-5.6,12.1-7.5,18.4c-0.9,3.1,0.1,6.8,0.2,10.3
		c3.4-0.7,7.6-0.3,10.2-2.2c7.3-5.4,14.6-11,20.7-17.6c17.2-18.7,32-39.4,44.8-61.4c14.7-25.2,28.4-50.9,42.1-76.7
		c2.9-5.4,8-5.5,13.1-3.3c3,1.3,5.7,3.9,7.9,6.5c4.4,5.2,3.9,7.1,0.6,13.2c-11.3,21.6-22.9,43.1-33.1,65.2
		c-10.6,23-19.7,46.6-29.3,70c-3.4,8.2-6.4,16.6-9.3,25.1c-2.6,7.6-12,10-17.9,4.4c-5.8-5.5-6.7-10.9-3.1-19
		c6.8-15.3,13.6-30.6,20.4-45.9c0.9-2,1.4-4.2,2.1-6.3c-0.4-0.2-0.8-0.5-1.3-0.7c-0.9,1.2-1.9,2.3-2.7,3.5
		c-10.6,15-20.7,30.4-31.8,45c-7.2,9.5-15.6,18.3-27.3,22.5c-7,2.5-15-0.3-20.1-6.9c-9.1-11.8-10.2-24.6-5.8-38.5
		c5.5-17.2,14.3-32.7,22.6-48.6C67.5,75,76,58,83.9,40.6c2.3-5.2,2.4-11.6,2.8-17.4c0.3-3.9-2.1-5.4-6.4-5.4
		C67,17.8,57.4,25.2,48.2,33C37.1,42.5,27.3,53.4,21,66.9c-1.7,3.6-2.4,7.8-2.7,11.8c-0.1,1.6,2.2,3.4,3.5,5c1.6,2,5.7,3,3.1,6.6
		c-2.1,2.9-5.5,1.8-8.2,0.7C7.5,87.3,3.4,79.4,0.4,70.4C0,69,0,67.6,0.3,65.6c0.1-2.8-0.1-5-0.3-7.2C0,57.3,0,56.2,0,54.8z"/>
	<path class="st2" d="M0,58.8c0.2,1.7,0.4,3.9,0.3,6.3C0,63.3,0,61.3,0,58.8z"/>
	<path class="st0" d="M170.8,106.2c6.1-13.1,12-25.9,18-38.7c1.7-3.5,4.7-4.8,8.3-3.7c5.3,1.6,9.4,4.8,12,9.9
		c2.1,3.9,0.6,7.2-1.3,10.7c-7.1,13.3-14,26.7-20.9,40.1c-0.3,0.5-0.3,1.1,0.6,2.3c2.3-3,4.7-5.9,6.9-9c12.5-17.1,26-33.3,42.2-47
		c3.3-2.8,7-5,10.7-7.3c4-2.6,7.8-1.7,11.5,1c8.2,6,10.4,16.7,5.7,25.6c-9.3,17.3-18.5,34.5-27.4,52c-2.8,5.6-4.6,11.7-6.6,17.7
		c-0.4,1.3,0.2,3,0.3,4.6c1.6-0.5,3.7-0.6,4.8-1.6c3.6-3.7,7-7.6,10.1-11.6c18.8-24.5,33.1-51.7,46.1-79.6c3.5-7.4,7-10.2,15.8-4.8
		c2.5,1.6,5,3.3,7,5.5c4.8,5,4.3,6.9,0.8,12.9c-7.9,13.5-15.7,27-22.7,41c-5,10.1-8.5,20.9-12.6,31.3c-0.5,1.2-0.7,2.6-0.7,3.9
		c0.1,3.2,2.1,4.6,4.5,2.4c7.5-6.8,14.9-13.6,17.3-24.2c1.4-6.2,3.2-12.3,10.5-14.5c1.3-0.4,2.3-2.2,3.1-3.6
		c10.9-17.1,21.6-34.3,32.8-51.2c4.5-6.8,9.9-12.7,17.5-16.5c7.7-3.9,20.4,1.6,24,11.1c0.5,1.4-0.6,4-1.8,5.2
		c-7.6,7.5-9.8,16.8-10.8,27c-1.4,14.3-3.8,28.4-5.1,42.7c-1.2,12.7-4.2,24.6-12,34.9c-8.4,11.2-19.8,16.9-33.6,13.9
		c-11.3-2.5-18-11.2-21.9-21.9c-0.5-1.4-0.9-2.7-1.3-3.8c-6.6,6.4-12.5,13.4-19.6,18.9c-12.6,9.6-26.2,3.6-28.9-12.2
		c-0.4-2.4-0.8-4.8-1.3-8c-3.6,4.1-6.5,7.9-9.9,11.2c-3.8,3.7-7.7,7.4-12,10.4c-10,7-21.6,2.6-25-9.2c-2.9-10-1.3-19.7,2.2-29.2
		c6.7-18.2,16.5-34.8,26.5-51.2c1-1.7,1.5-3.8,2.3-5.7c-0.3-0.3-0.7-0.6-1-0.8c-2.1,1.9-4.4,3.6-6.2,5.8
		c-14.3,17.4-29,34.6-42.7,52.6c-9.1,12-16.7,25.1-24.8,37.8c-2,3.1-3.9,4.3-7.7,2.7c-10.3-4.2-13.5-13.6-8.5-24.6
		C154.4,143.2,162.5,124.8,170.8,106.2 M341.6,99.4c-6.6,11-13.2,21.9-19.8,32.9c-2.5,4.3-6.5,8.5-7,13c-0.7,7.5,1.3,15.2,6.4,21.4
		c4,4.9,9.8,5.3,13.8,0.5c2.7-3.3,5.1-7.2,6.1-11.2c2.9-11.9,5.1-23.9,7.4-35.9c2.1-10.8,4-21.6,5.9-32.5c0.3-1.5,0-3,0-4.6
		c-0.5-0.2-1-0.4-1.5-0.6C349.3,87.9,345.7,93.4,341.6,99.4 M253.4,161l0.2,0.2C253.6,161.1,253.6,160.8,253.4,161z"/>
	<path class="st3" d="M315.7,47.9c-7.3-6.9-8.8-12.9-5.5-21.2c4.1-10.3,12.3-17,21-17c5.9,0,10.6,4.2,11.3,10.2
		c1.3,10.8-6.7,25.5-16.9,29.6C322.9,50.4,319.2,48.6,315.7,47.9z"/>
	<path class="st4" d="M253.5,160.9c0.1-0.1,0.1,0.2,0.1,0.2S253.4,161,253.5,160.9z"/>
</g>
</svg>
